<svg xmlns="http://www.w3.org/2000/svg" viewBox="0 0 64 64">
  <defs>
    <linearGradient id="brainGradient" x1="0%" y1="0%" x2="100%" y2="100%">
      <stop offset="0%" stop-color="#6366F1" />
      <stop offset="50%" stop-color="#8B5CF6" />
      <stop offset="100%" stop-color="#EC4899" />
    </linearGradient>
  </defs>
  <rect x="4" y="4" width="56" height="56" rx="16" fill="#020617" />
  <path
    d="M22 18c-4 0-7 3-7 7v6c0 4 3 7 7 7h2v-4h-2a3 3 0 0 1-3-3v-6a3 3 0 0 1 3-3h2v-4h-2zm20 0h-2v4h2a3 3 0 0 1 3 3v6a3 3 0 0 1-3 3h-2v4h2c4 0 7-3 7-7v-6c0-4-3-7-7-7zm-16 0a6 6 0 0 0-6 6v16a6 6 0 0 0 6 6h2V18h-2zm8 0v28h2a6 6 0 0 0 6-6V24a6 6 0 0 0-6-6h-2z"
    fill="url(#brainGradient)"
  />
</svg>

